<?xml version="1.0" encoding="UTF-8" standalone="no"?>
<!-- Created with Inkscape (http://www.inkscape.org/) -->

<svg
   width="73.839951mm"
   height="73.839951mm"
   viewBox="0 0 73.839951 73.839951"
   version="1.1"
   id="svg903"
   inkscape:version="1.1 (c68e22c387, 2021-05-23)"
   sodipodi:docname="logo.svg"
   inkscape:export-filename="C:\Users\Luis\Data\USZ\FHIR-OpenAPI\docs\static\logo.png"
   inkscape:export-xdpi="400"
   inkscape:export-ydpi="400"
   xmlns:inkscape="http://www.inkscape.org/namespaces/inkscape"
   xmlns:sodipodi="http://sodipodi.sourceforge.net/DTD/sodipodi-0.dtd"
   xmlns="http://www.w3.org/2000/svg"
   xmlns:svg="http://www.w3.org/2000/svg">
  <sodipodi:namedview
     id="namedview905"
     pagecolor="#ffffff"
     bordercolor="#999999"
     borderopacity="1"
     inkscape:pageshadow="0"
     inkscape:pageopacity="0"
     inkscape:pagecheckerboard="0"
     inkscape:document-units="mm"
     showgrid="false"
     inkscape:zoom="0.77771465"
     inkscape:cx="264.23573"
     inkscape:cy="-198.65898"
     inkscape:window-width="2560"
     inkscape:window-height="1377"
     inkscape:window-x="1912"
     inkscape:window-y="-8"
     inkscape:window-maximized="1"
     inkscape:current-layer="layer1" />
  <defs
     id="defs900" />
  <g
     inkscape:label="Layer 1"
     inkscape:groupmode="layer"
     id="layer1"
     transform="translate(-35.042674,-255.65735)">
    <g
       id="g1092"
       transform="translate(6.9756618,-0.17771029)">
      <path
         style="fill:#8b163c;fill-opacity:1;stroke:#8b163c;stroke-width:0.113652;stroke-linecap:round;stroke-linejoin:miter;stroke-miterlimit:4;stroke-dasharray:none;stroke-opacity:1"
         d="m 50.716576,295.52977 c 2.056385,-13.70923 -1.14041,0.73596 -1.66243,1.15821 -1.45217,1.25555 -2.64337,2.80387 -3.45379,4.54594 -0.70483,1.50423 -1.298129,2.19153 -1.480849,3.84793 0.05426,2.16041 0.480669,4.52862 0.867729,6.30154 1.03269,4.53329 2.98164,9.00327 6.35966,12.28473 3.04223,3.01432 7.13406,4.8014 11.33411,5.45037 1.65201,0.29551 3.33169,0.35525 5.00621,0.30702 1.79173,0 3.58312,-0.11739 5.34868,-0.43222 2.3943,-0.40706 4.79036,-0.95054 7.02715,-1.915 1.49783,-0.77322 2.85692,-1.79176 4.18669,-2.82083 1.84965,-1.47111 4.749605,-6.11663 4.749605,-6.11663 0,0 -0.707675,0.64629 -0.875125,0.72629 -4.13253,2.63086 -8.81518,4.36153 -13.67743,4.94832 -4.4609,0.53033 -9.05518,0.21344 -13.34484,-1.18192 -2.73275,-0.85445 -5.33665,-2.30296 -7.22217,-4.48466 -2.24745,-2.53384 -3.39969,-5.84806 -3.84181,-9.1567 -0.28932,-2.0891 -0.04008,-4.21452 0.01006,-6.31815 0.15695,-2.3119 0.974219,-4.66936 1.399909,-6.95901 0.0262,-0.1057 -0.701906,-0.38158 -0.731362,-0.18521 z"
         id="path9424"
         sodipodi:nodetypes="sccccccccccccccccccss" />
      <path
         style="fill:#8b163c;fill-opacity:1;stroke:#8b163c;stroke-width:0.113652;stroke-linecap:round;stroke-linejoin:miter;stroke-miterlimit:4;stroke-dasharray:none;stroke-opacity:1"
         d="m 60.406952,260.11393 c 0,0 -1.475176,1.31396 -1.843606,1.6382 -0.99851,0.97362 -1.78181,2.13879 -2.4184,3.37368 -1.03547,1.55228 -2.8993,2.29417 -4.67177,2.61083 -1.27087,0.23857 -2.56574,0.19142 -3.84117,0.2876 -0.16692,0.26786 0.22186,0.60627 0.29366,0.89815 1.29368,2.72775 3.82707,4.83553 6.76241,5.56512 2.47052,0.67667 4.92916,1.95757 6.39268,4.12805 0.61957,0.88281 0.94882,1.97477 0.86706,3.06052 -0.0374,2.08095 -1.59337,3.97015 -3.58412,4.51747 -0.22897,0.13213 -1.60665,0.26969 -1.60665,0.26969 0,0 1.28253,0.16777 1.47584,0.23918 1.7926,0.28099 3.66133,0.32287 5.42483,-0.15094 1.71386,-0.47078 3.27073,-1.68373 3.89316,-3.384 0.84942,-2.08235 0.79359,-4.52887 -0.14425,-6.57294 -1.03855,-2.18665 -3.08796,-3.61034 -4.97885,-5.00549 -1.7068,-1.19859 -3.111,-2.9705 -3.41755,-5.07884 -0.31755,-1.82499 0.0667,-3.71689 0.78862,-5.41453 0.0564,-0.11782 0.608106,-0.98175 0.608106,-0.98175 z"
         id="path9463"
         sodipodi:nodetypes="ccccccccccccccccccc" />
      <path
         style="fill:#e72564;fill-opacity:1;stroke:#e72564;stroke-width:0.114;stroke-linecap:round;stroke-linejoin:miter;stroke-miterlimit:4;stroke-dasharray:none;stroke-opacity:1"
         d="m 70.068676,255.71535 c -0.0023,0 -0.0046,0.001 -0.0069,0.002 -3.392499,0.81223 -6.663418,2.2325 -9.496095,4.27969 -0.62698,0.39447 -0.74237,1.18568 -1.02984,1.81137 -0.73001,1.86973 -0.91485,3.99743 -0.21844,5.90589 0.65313,1.90812 2.20933,3.31219 3.8362,4.41272 1.89727,1.40925 3.89075,3.0457 4.61832,5.39459 0.48774,1.70511 0.48882,3.56547 -0.0665,5.25055 -0.58081,1.79835 -2.1005,3.22657 -3.91485,3.73695 -1.53578,0.48514 -3.16349,0.39952 -4.74475,0.29758 -1.30432,-0.17746 -2.64626,-0.36695 -3.89763,-0.7937 -1.83422,-0.6981 -3.12486,-2.63483 -3.01789,-4.60438 0.03008,-0.43199 0.127791,-1.02036 -0.25133,-0.82024 -4.69439,2.47161 -9.2475,5.48008 -12.57371,9.68039 -2.54635,3.18924 -4.19778,7.18026 -4.19989,11.29525 -0.10359,4.08445 1.21584,8.07458 3.14568,11.63151 1.64119,3.0064 3.69239,5.79453 6.08193,8.24835 0.12025,0.18675 0.3961,0.0222 0.26971,-0.1701 -1.04558,-2.86273 -1.89537,-5.8479 -2.10799,-8.89169 -0.0571,-1.65907 0.225847,-3.22077 0.68411,-4.89974 0.845373,-2.42255 0.66592,-1.9392 1.60888,-4.22796 1.05336,-3.2249 5.511131,-8.25334 6.1523,-7.88107 0.641169,0.37227 -1.21073,6.8933 -1.1404,10.3903 0.0645,3.97446 0.89878,8.09545 3.26305,11.3707 1.935,2.7213 4.90529,4.55933 8.07146,5.50945 2.44718,0.82987 5.02412,1.24833 7.60007,1.37237 2.62679,0.0106 5.27958,0.0317 7.86006,-0.53303 4.32652,-0.82611 8.47905,-2.55135 12.12821,-5.01526 0.54716,-0.49239 0.60761,-1.29371 0.87709,-1.94109 0.86114,-2.61405 0.9941,-5.38779 1.14504,-8.10929 0.19539,-2.96061 0.8791,-6.02308 2.66425,-8.45902 0.59819,-0.76642 1.29077,-1.46254 2.07367,-2.03655 0.219705,-0.20173 -0.246738,-0.23759 -0.43365,-0.18643 -3.29491,0.76616 -6.6275,1.88865 -9.25955,4.08734 -1.61758,1.34276 -2.74899,3.15007 -3.71308,4.99306 -0.68053,1.16866 -1.4895,2.26359 -2.19953,3.41455 -1.04381,1.67643 -2.62221,2.96828 -4.49003,3.63868 -2.30204,0.83177 -4.80553,1.07434 -7.23239,0.8328 -2.85091,-0.50453 -5.36654,-2.55423 -6.38342,-5.27378 -0.56438,-1.35342 -0.60767,-2.85874 -0.46048,-4.29442 0.43831,-2.97043 2.58996,-5.63317 5.44182,-6.62123 1.00891,-0.3588 2.13871,-0.33295 3.20172,-0.24114 1.86092,0.32068 3.36897,1.87936 3.78616,3.68972 0.24051,0.91866 0.24062,1.86574 0.37518,2.79866 0.05857,0.43513 0.45906,-0.0614 0.5987,-0.18783 3.13172,-2.7935 5.49148,-6.56307 6.17916,-10.73912 0.2032,-1.42888 0.18891,-2.8856 0.096,-4.32326 -0.4336,-3.2072 -1.69582,-6.26375 -3.49155,-8.94482 -1.78271,-2.6533 -3.87345,-5.12345 -6.31124,-7.19379 -2.10624,-1.92249 -3.64434,-4.54469 -3.89305,-7.41217 -0.3274,-3.55399 0.98282,-7.02294 2.88348,-9.97574 0.0898,-0.0978 0.0442,-0.28826 -0.10808,-0.26728 z"
         id="path9502"
         sodipodi:nodetypes="ssccccccccccccccccccczcccccccccccccccccccccccccccccss" />
    </g>
  </g>
</svg>
